inDegrees=no
num_controls=7
num_derivatives=13
num_iterations=114
num_multipliers=7
num_parameters=0
num_slacks=7
num_states=26
objective=0.443538
objective_accelerations=0.060139
objective_balance=0.003830
objective_effort=0.024462
objective_height=0.349764
objective_ligament=0.005343
solver_duration=1727.413509
status=Solve_Succeeded
success=true
DataType=double
version=3
OpenSimVersion=4.5
endheader
time	/jointset/ground_pelvis/pelvis_tilt/value	/jointset/ground_pelvis/pelvis_tx/value	/jointset/ground_pelvis/pelvis_ty/value	/jointset/hip_l/hip_flexion_l/value	/jointset/hip_l/hip_adduction_l/value	/jointset/hip_l/hip_rotation_l/value	/jointset/back/lumbar_extension/value	/jointset/patellofemoral_l/patellar_flexion_l/value	/jointset/knee_l/knee_flexion_l/value	/jointset/knee_l/knee_adduction_l/value	/jointset/knee_l/knee_rotation_l/value	/jointset/ankle_l/ankle_angle_l/value	/jointset/subtalar_l/subtalar_angle_l/value	/jointset/ground_pelvis/pelvis_tilt/speed	/jointset/ground_pelvis/pelvis_tx/speed	/jointset/ground_pelvis/pelvis_ty/speed	/jointset/hip_l/hip_flexion_l/speed	/jointset/hip_l/hip_adduction_l/speed	/jointset/hip_l/hip_rotation_l/speed	/jointset/back/lumbar_extension/speed	/jointset/patellofemoral_l/patellar_flexion_l/speed	/jointset/knee_l/knee_flexion_l/speed	/jointset/knee_l/knee_adduction_l/speed	/jointset/knee_l/knee_rotation_l/speed	/jointset/ankle_l/ankle_angle_l/speed	/jointset/subtalar_l/subtalar_angle_l/speed	/forceset/tau_hip_flexion_l	/forceset/tau_hip_adduction_l	/forceset/tau_hip_rotation_l	/forceset/tau_knee_flexion_l	/forceset/tau_ankle_angle_l	/forceset/tau_subtalar_angle_l	/forceset/tau_lumbar_extension	lambda_cid13_p0	lambda_cid13_p1	lambda_cid13_p2	lambda_cid13_p3	lambda_cid13_p4	lambda_cid13_p5	lambda_cid14_p0	/jointset/ground_pelvis/pelvis_tilt/accel	/jointset/ground_pelvis/pelvis_tx/accel	/jointset/ground_pelvis/pelvis_ty/accel	/jointset/hip_l/hip_flexion_l/accel	/jointset/hip_l/hip_adduction_l/accel	/jointset/hip_l/hip_rotation_l/accel	/jointset/back/lumbar_extension/accel	/jointset/patellofemoral_l/patellar_flexion_l/accel	/jointset/knee_l/knee_flexion_l/accel	/jointset/knee_l/knee_adduction_l/accel	/jointset/knee_l/knee_rotation_l/accel	/jointset/ankle_l/ankle_angle_l/accel	/jointset/subtalar_l/subtalar_angle_l/accel	gamma_cid13_p0	gamma_cid13_p1	gamma_cid13_p2	gamma_cid13_p3	gamma_cid13_p4	gamma_cid13_p5	gamma_cid14_p0
1	-0.5847988139369137	-0.0960982093446168	0.5522347396818138	1.933475441422345	-0.4640027610963526	0.02335211999705939	-0.2617942221080819	1.418384917757897	1.418384917757957	-0.07206787259912435	-0.1745293206341855	0.1959402413450809	-0.01991124575642618	-0.01627493568877495	0.01088997503407131	0.003508255435704326	-0.004580890041789718	-0.002381109587441905	0.003456221063328397	-9.04244207671128e-06	0.001006275596328591	0.001006275596328587	-0.005476385530283075	-3.295636739419628e-05	0.02177737911241326	0.009407301781649353	-0.3555496882566114	0.006627193247599066	0.0008799248758138906	-0.3004557035959819	0.05278600405924679	0.03033188354589971	0.2989745296313542	-23.48759148683667	-9.472415160122429	1.644602551658321	6.873303906700955	-649.1863913440959	-43.68723348618375	-0.8005024699393776	1.578098053214679	0.2537194293068635	2.094817496619024	-7.2109512115146	-0.1319196645012545	-2.366250470626058	-0.01962384636881595	-5.411409987439618	-5.411409987439695	-0.6628326784076293	-0.03276000125686215	-0.4690408256039376	-0.3969125123571924	4.696015505872464e-09	1.765053577535323e-08	-1.410223873139296e-08	1.916611360777438e-09	-2.100500121075334e-09	2.457820626742268e-08	2.104270593234695e-09
1.01	-0.5848836290324059	-0.09597668268324167	0.5523744124040662	1.933070401047233	-0.4640320800969092	0.02326732973587151	-0.2617942401265582	1.418124496780926	1.418124496781013	-0.07215309872726641	-0.1745298492666831	0.1961347094858397	-0.01983555809735051	-0.0006839092396997936	0.01341844003062369	0.02442181725875629	-0.07641982695049863	-0.003478621131790535	-0.02041039431615121	3.005642514473486e-06	-0.0530867456327302	-0.053086745632731	-0.01156755594841644	-7.09294518854943e-05	0.01710920358420549	0.005730968914381454	-0.3554360821787446	0.006726730900290251	0.0008661448712331025	-0.3003072638988331	0.05261966880914175	0.03035965395184643	0.2988927675708059	-23.52687851416105	-9.481970167996566	1.651121044665422	6.806277664770087	-649.0304425823226	-43.71094589108018	-0.8044960268595093	1.550229620771018	0.2528727224847633	2.088952255616897	-7.169262911453062	-0.09805637653625335	-2.396291449989774	0.01125417022847818	-5.407687224458312	-5.407687224458384	-0.5820707835423014	0.01096769850617165	-0.4667623241238641	-0.3528870477066763	-3.602581172493702e-09	8.477582053325933e-09	2.421033055162532e-08	1.35175291447421e-09	-1.242635039783155e-08	8.342045743584735e-08	-1.068349579040482e-08
1.02	-0.5848124089274039	-0.09582977883436994	0.5527230860906428	1.931947191706854	-0.4640722521083362	0.02294398844521251	-0.2617942106573182	1.417323257784902	1.417323257785015	-0.07229919887159506	-0.174530700897909	0.1962822845897775	-0.01979661244170654	0.01493210441005888	0.01596541253338946	0.04530844830055335	-0.1482146830953689	-0.004551711761522395	-0.04425398483086534	4.55101321416543e-07	-0.1071573282145614	-0.1071573282145626	-0.01765118876759434	-9.755611431919232e-05	0.01239877174821096	0.002058901095310174	-0.3553224761008787	0.006826268552980989	0.0008523648666560511	-0.300158824201684	0.05245333355903674	0.03038742435779255	0.2988110055102565	-23.57103249225131	-9.490580193131427	1.657383017618968	6.756121700207163	-648.9447294655458	-43.71177567072001	-0.8164038344148729	1.583095493351382	0.2574209305495382	2.089431340368044	-7.202135058746873	-0.1270354815778939	-2.361645497672957	-0.02254357152566809	-5.406922257994108	-5.406922257994106	-0.6613251586165318	-0.03049071684533055	-0.4774920871612937	-0.3960595027178615	-1.194329694244325e-08	-9.059492483834934e-10	6.262229876856307e-08	8.14455267845565e-10	-2.266565845555143e-08	1.412584818654485e-07	-2.342028284581576e-08
1.03	-0.5845848756725133	-0.09565727388814539	0.5532804075396199	1.930106436806765	-0.4641229514043859	0.02238242233692687	-0.2617942487692096	1.415981515774556	1.415981515774546	-0.07250606681029539	-0.1745317279688793	0.196382447577497	-0.0197943173670366	0.03058079332580891	0.01854244439272872	0.06614301271576918	-0.2199101425927056	-0.005574813713392131	-0.06804512493714139	-6.687414643933445e-06	-0.1611785782725899	-0.1611785782725882	-0.02371709884670962	-0.0001005813586522982	0.007617418479285282	-0.001592777453741284	-0.3549056509584283	0.007009755527833038	0.0008096035210816925	-0.2998864834730253	0.05235648084364793	0.03048030531610266	0.2985283758225537	-23.57293473598315	-9.541929273293702	1.678526910984231	6.632611425752486	-648.5644433509866	-43.77665604611124	-0.8364420256002233	1.556688494664537	0.2588745180330415	2.078538032365369	-7.149332976953185	-0.08795461746387948	-2.385753294679497	0.010408918094454	-5.397844733914531	-5.39784473391409	-0.5784433929112855	0.01591032935086999	-0.480918273453294	-0.348665923933876	-2.028444249904161e-08	-1.0291629300906e-08	1.010352812603367e-07	2.774388538666608e-10	-3.29040834294036e-08	1.99086259083429e-07	-3.615654970399988e-08
